<svg width="229" height="168" viewBox="0 0 229 168" fill="none" xmlns="http://www.w3.org/2000/svg">
<path fill-rule="evenodd" clip-rule="evenodd" d="M177.418 1.31734C170.496 3.51234 164.803 6.93534 159.87 11.8673C149.78 21.9583 146.199 35.1923 149.435 50.4363C150.019 53.1863 149.711 53.6633 146.006 55.7463C140.327 58.9373 134.918 64.2683 134.918 66.6723C134.918 67.7843 135.748 69.7183 136.762 70.9713C139.557 74.4233 143.504 73.8733 150.323 69.0803L156.227 64.9313L161.105 69.4933C177.46 84.7913 202.402 83.8433 217.844 67.3353C225.867 58.7593 228.273 52.4813 228.356 39.9153C228.412 31.2943 228.131 29.8093 225.315 23.8683C219.961 12.5693 212.493 5.81434 201.117 1.98234C194.111 -0.377659 183.686 -0.669658 177.418 1.31734ZM199.858 15.8853C212.23 22.1963 217.796 34.8973 214.01 48.1753C212.378 53.8963 206.285 61.1443 200.546 64.1893C194.701 67.2923 182.164 67.3083 176.35 64.2203C170.966 61.3613 165.614 55.3053 163.44 49.6123C161.024 43.2853 161.673 33.8093 164.96 27.4213C171.281 15.1403 187.736 9.70034 199.858 15.8853ZM2.55332 68.9883C-0.529683 71.4133 -0.839684 74.7583 1.72632 77.9273C3.22132 79.7733 4.99832 80.2953 11.9763 80.9373C16.6193 81.3653 22.1073 82.0353 24.1723 82.4273C29.4563 83.4293 32.9183 81.0693 32.9183 76.4633C32.9183 70.7353 31.0813 69.6453 18.5963 67.9663C7.64732 66.4953 5.55332 66.6283 2.55332 68.9883ZM116.401 81.6653C111.383 86.9773 103.918 99.0443 103.918 101.844C103.918 104.552 105.943 107.099 108.918 108.132C111.917 109.173 114.88 106.884 119.804 99.7233C122.568 95.7043 125.739 91.2903 126.852 89.9153C132.891 82.4483 123.021 74.6573 116.401 81.6653ZM46.4753 82.1383C43.2903 86.6843 44.5403 89.5993 51.7323 94.3983C54.1053 95.9813 57.9993 98.9953 60.3863 101.096C65.3263 105.444 69.5403 106.095 72.3883 102.948C76.6343 98.2573 73.7623 93.4663 61.5113 84.8003C53.5873 79.1953 49.0933 78.3993 46.4753 82.1383ZM81.1603 113.949C76.5473 115.803 76.3303 118.951 80.1893 128.085C82.1243 132.667 84.2253 138.056 84.8563 140.062C86.4703 145.184 90.9143 147.052 94.7323 144.212C98.2913 141.565 98.4963 139.177 95.8523 131.139C92.5043 120.961 89.1953 114.971 86.3163 113.876C84.9263 113.348 83.7053 112.944 83.6033 112.978C83.5013 113.013 82.4023 113.45 81.1603 113.949ZM35.5733 156.744C33.1463 159.425 33.4443 164.469 36.1413 166.358C38.0883 167.722 45.3203 167.915 94.6023 167.915H150.84L152.879 165.726C155.467 162.949 155.482 159.479 152.918 156.915C150.965 154.962 149.585 154.915 94.0733 154.915C40.2723 154.915 37.1393 155.013 35.5733 156.744Z" fill="white"/>
</svg>
