<svg width="107" height="107" viewBox="0 0 107 107" fill="none" xmlns="http://www.w3.org/2000/svg">
<path fill-rule="evenodd" clip-rule="evenodd" d="M7.38622 1.85705C5.73622 2.87605 3.48622 4.72105 2.38622 5.95705C0.460221 8.12105 0.376221 9.83005 0.106221 52.1351C-0.208779 101.423 -0.281779 100.847 6.80822 104.832C10.4312 106.868 11.9572 106.996 32.6172 106.996C53.3212 106.996 54.6802 106.881 56.3902 104.992C57.8882 103.336 58.0062 102.554 57.0662 100.492L55.9292 97.9961H33.6072C17.5802 97.9961 10.9482 97.6581 10.0862 96.7961C9.19122 95.9011 8.88622 84.8701 8.88622 53.3311C8.88622 12.569 8.95522 11.0301 10.8202 10.0311C11.9772 9.41205 21.1892 8.99605 33.7492 8.99605C51.5012 8.99605 54.9862 8.75305 56.3152 7.42505C58.3752 5.36405 58.3002 3.68005 56.0572 1.65105C54.4722 0.217053 51.3052 -0.00394734 32.3072 5.2659e-05C12.7152 0.00305266 10.0672 0.200053 7.38622 1.85705ZM73.0022 23.6271C71.8382 24.4421 70.8862 25.8641 70.8862 26.7861C70.8862 27.7081 75.4902 33.0821 81.1182 38.7291L91.3502 48.9961H64.8182C36.9492 48.9961 35.8862 49.1611 35.8862 53.4961C35.8862 57.8311 36.9492 57.9961 64.8182 57.9961H91.3502L81.1182 68.2631C75.4902 73.9101 70.8862 79.2841 70.8862 80.2061C70.8862 82.9311 74.7892 85.1161 77.2912 83.7921C81.5112 81.5581 106.886 55.6671 106.886 53.5961C106.886 51.4131 81.1042 24.9061 77.2522 23.1291C75.6952 22.4111 74.5472 22.5451 73.0022 23.6271Z" fill="white"/>
</svg>
