<svg width="109" height="82" viewBox="0 0 109 82" fill="none" xmlns="http://www.w3.org/2000/svg">
<path fill-rule="evenodd" clip-rule="evenodd" d="M3.913 1.33358C0.208 4.21111 0 6.3159 0 41C0 75.6841 0.208 77.7889 3.913 80.6664C6.203 82.4445 102.797 82.4445 105.087 80.6664C108.792 77.7889 109 75.6841 109 41C109 6.3159 108.792 4.21111 105.087 1.33358C102.797 -0.444525 6.203 -0.444525 3.913 1.33358ZM99.833 4.88674C99.537 5.60082 71.449 31.7616 60.179 41.8193C57.695 44.0363 55.058 45.5403 53.972 45.3593C52.119 45.0518 9.205 6.32804 9.069 4.84123C9.031 4.42351 29.513 4.08265 54.583 4.08265C79.654 4.08265 100.017 4.44475 99.833 4.88674ZM27.671 28.7111L40.689 40.6976L29.095 51.3834C22.718 57.2598 14.688 64.8253 11.25 68.1934L5 74.3187V41.1295V7.94128L9.827 12.3329C12.481 14.7492 20.511 22.1196 27.671 28.7111ZM103.774 56.9705L103.5 73.5763L86.5 57.6017C77.15 48.8153 69.5 41.179 69.5 40.6308C69.5 40.0826 77.15 32.5839 86.5 23.9674L103.5 8.30033L103.774 24.3336C103.925 33.1513 103.925 47.8383 103.774 56.9705ZM48.055 47.2709C52.3 50.8837 56.526 50.8372 61.337 47.1252C65.697 43.7622 63.144 42.2157 81.348 59.2473C87.864 65.3432 95.064 72.0187 97.348 74.081L101.5 77.8314L54.5 77.8324L7.5 77.8344L11.558 74.083C13.79 72.0197 21.856 64.529 29.482 57.4358C37.108 50.3426 43.685 44.54 44.097 44.54C44.509 44.54 46.29 45.7689 48.055 47.2709Z" fill="white"/>
</svg>
