<svg width="210" height="200" viewBox="0 0 210 200" fill="none" xmlns="http://www.w3.org/2000/svg">
<path fill-rule="evenodd" clip-rule="evenodd" d="M12.2975 1.38836C8.04849 3.23836 2.32649 10.2314 0.939486 15.2674C0.103486 18.3034 -0.138514 36.8784 0.0714856 81.9754L0.361486 144.475L2.75549 149.338C4.40749 152.694 6.56149 155.097 9.70149 157.088C14.2205 159.954 14.3655 159.975 29.9345 159.975C42.7895 159.975 45.8455 159.699 46.8865 158.445C47.8565 157.276 47.8905 156.334 47.0295 154.445C45.9105 151.989 45.8275 151.975 31.8335 151.975C16.0205 151.975 13.0915 151.129 10.1285 145.708C8.53849 142.798 8.33249 138.498 8.06849 102.725L7.77549 62.9754H97.3385H186.902L186.631 83.7254L186.361 104.475L183.934 104.818C182.6 105.006 180.532 105.8 179.339 106.581C177.456 107.815 176.69 107.801 173.516 106.475C171.506 105.635 169.861 104.257 169.861 103.412C169.861 100.276 166.839 96.1634 163.742 95.0834C154.093 91.7204 143.861 96.0404 143.861 103.476C143.861 104.364 142.284 105.736 140.322 106.556C137.18 107.868 136.539 107.863 134.6 106.505C130.626 103.721 125.346 104.542 120.799 108.65C113.809 114.965 112.357 120.523 116.497 125.118C118.816 127.692 116.032 133.559 112.079 134.427C107.084 135.524 104.546 139.181 104.054 145.989L103.621 151.975H90.7195C77.9705 151.975 77.8055 152.004 76.6935 154.445C75.8325 156.334 75.8665 157.276 76.8365 158.445C77.8915 159.717 81.2085 159.975 96.4705 159.975H114.834L116.312 163.512C117.664 166.747 117.627 167.367 115.889 170.762C113.211 175.991 114.186 179.046 120.41 184.933C126.339 190.541 129.838 191.354 133.987 188.091C136.182 186.364 136.688 186.328 140.023 187.658C142.939 188.821 143.79 189.785 144.3 192.499C145.312 197.897 148.863 199.975 157.073 199.975C163.412 199.975 164.269 199.721 166.938 197.052C168.562 195.428 169.861 193.051 169.861 191.704C169.861 189.807 170.724 188.939 173.819 187.724C177.168 186.408 177.953 186.381 178.919 187.545C180.779 189.786 186.263 190.335 189.591 188.615C193.457 186.615 198.65 180.664 199.507 177.249C199.964 175.428 199.553 173.412 198.235 171.005C196.461 167.767 196.414 167.117 197.71 163.713C198.817 160.805 199.674 159.975 201.574 159.975C202.938 159.975 205.304 158.686 206.938 157.052C209.522 154.468 209.861 153.43 209.861 148.099C209.861 144.783 209.323 140.889 208.666 139.447C207.485 136.855 203.238 133.975 200.596 133.975C199.845 133.975 198.465 132.368 197.529 130.405C195.892 126.971 195.904 126.736 197.844 124.27C200.561 120.816 200.384 116.75 197.361 113.157L194.861 110.186V64.2064C194.861 13.3974 194.779 12.6414 188.568 6.10936C182.449 -0.324645 186.898 -0.0286443 97.1435 0.0143557C31.2285 0.0463557 14.7675 0.312356 12.2975 1.38836ZM180.496 9.89436C185.918 13.2004 186.968 17.9134 186.643 37.4754L186.361 54.4754H97.3615H8.36149V35.9754C8.36149 18.5724 8.49349 17.2624 10.5935 13.8864C11.8215 11.9124 13.8465 9.80536 15.0935 9.20336C16.6725 8.44236 41.6605 8.09136 97.3615 8.04636C174.429 7.98536 177.476 8.05336 180.496 9.89436ZM31.2285 19.8934C26.4475 22.8084 24.8615 25.7534 24.8615 31.7124C24.8615 36.3094 25.2965 37.4794 28.1735 40.6184C30.9315 43.6284 32.3255 44.3134 36.5075 44.7154C45.3715 45.5674 51.8545 39.9744 51.8545 31.4754C51.8545 20.9394 40.2235 14.4084 31.2285 19.8934ZM67.1655 19.9314C61.9295 23.1244 60.4385 26.4494 60.7505 34.2404C60.8155 35.8634 62.2285 38.4974 64.1735 40.6184C66.9315 43.6284 68.3255 44.3134 72.5075 44.7154C81.3715 45.5674 87.8545 39.9744 87.8545 31.4754C87.8545 20.9004 76.2215 14.4094 67.1655 19.9314ZM115.412 19.9324C111.913 22.2394 108.961 27.3774 108.903 31.2654C108.841 35.3594 112.445 41.7094 115.821 43.4544C118.203 44.6864 123.136 44.9754 141.777 44.9754H164.791L168.312 41.8844C175.991 35.1424 174.684 24.0384 165.663 19.3734C163.584 18.2984 157.811 17.9774 140.661 17.9824C120.261 17.9884 118.11 18.1544 115.412 19.9324ZM42.0325 27.6304C44.3065 29.6884 44.3775 32.7474 42.2065 35.1464C38.8975 38.8024 32.8615 36.4314 32.8615 31.4754C32.8615 26.6074 38.3575 24.3034 42.0325 27.6304ZM78.0325 27.6304C80.3065 29.6884 80.3775 32.7474 78.2065 35.1464C74.8975 38.8024 68.8615 36.4314 68.8615 31.4754C68.8615 26.6074 74.3575 24.3034 78.0325 27.6304ZM163.29 27.5464C164.154 28.4114 164.861 30.1794 164.861 31.4754C164.861 36.6284 163.386 36.9754 141.481 36.9754C119.323 36.9754 117.611 36.5804 117.611 31.4754C117.611 26.3704 119.323 25.9754 141.481 25.9754C158.545 25.9754 161.965 26.2214 163.29 27.5464ZM63.4925 88.2254C61.6175 91.2064 53.7545 124.533 54.4805 126.424C55.3495 128.69 58.8625 129.402 60.6015 127.664C61.7455 126.52 70.6185 93.6554 70.8255 89.7964C70.8885 88.6124 67.7745 85.9754 66.3135 85.9754C65.5405 85.9754 64.2705 86.9884 63.4925 88.2254ZM31.8285 95.7254C24.0105 104.223 22.5535 106.428 23.2675 108.68C23.5825 109.672 27.1815 114.049 31.2665 118.407C38.5045 126.13 38.7525 126.292 41.0275 124.783C42.3115 123.932 43.4925 122.579 43.6515 121.777C43.8115 120.974 41.4495 117.524 38.4015 114.109C35.3545 110.694 32.8615 107.551 32.8615 107.124C32.8615 106.698 34.2035 105.064 35.8425 103.493C37.4825 101.922 40.0225 98.9084 41.4865 96.7944C44.0645 93.0754 44.0915 92.8874 42.3505 90.9634C41.3615 89.8704 39.9865 88.9754 39.2955 88.9754C38.6045 88.9754 35.2445 92.0124 31.8285 95.7254ZM82.4655 91.1304C80.6395 93.7374 81.1525 94.8574 87.3055 101.701C89.8115 104.489 91.8615 107.106 91.8615 107.518C91.8615 107.93 89.8975 110.367 87.4975 112.933C81.0655 119.809 80.3645 121.478 82.8615 123.975C85.5535 126.667 87.1275 125.783 94.5475 117.421C101.865 109.173 102.572 107.7 100.62 104.759C97.7005 100.36 86.6715 88.9754 85.3295 88.9754C84.5845 88.9754 83.2955 89.9454 82.4655 91.1304ZM161.861 106.996C161.861 110.456 162.245 111.168 164.611 112.093C166.123 112.685 169.752 114.259 172.674 115.592C178.18 118.103 178.848 118.039 182.618 114.646L184.874 112.614L187.868 115.481C191.446 118.91 191.526 119.638 188.655 122.695C186.642 124.837 186.565 125.326 187.771 128.259C188.499 130.028 189.865 133.692 190.806 136.402C192.576 141.495 194.229 142.781 199.168 142.905C201.844 142.972 201.962 143.175 201.668 147.225C201.37 151.346 201.242 151.49 197.463 151.975C193.277 152.512 193.27 152.52 189.421 161.346C186.337 168.418 186.252 170.114 188.861 172.475C191.531 174.892 191.387 176.097 188.045 179.298L185.229 181.996L182.798 179.408C179.993 176.422 178.238 176.52 169.861 180.132C162.019 183.513 161.861 183.67 161.861 188.089V192.085L157.111 191.78L152.361 191.475L152.056 187.275C151.815 183.958 151.29 182.938 149.556 182.422C148.349 182.062 144.728 180.608 141.511 179.19C136.803 177.116 135.338 176.844 134.011 177.801C129.27 181.217 127.938 181.396 125.351 178.966C122.338 176.135 122.241 174.846 124.861 172.475C127.395 170.181 127.383 167.768 124.808 162.041C120.516 152.495 120.515 152.493 116.58 152.165C112.911 151.858 112.861 151.796 112.861 147.542C112.861 143.28 112.907 143.223 116.89 142.586C120.056 142.08 121.148 141.357 121.99 139.209C122.58 137.705 123.917 134.55 124.961 132.198C127.37 126.777 127.351 124.846 124.861 121.975C122.291 119.012 122.311 118.876 125.806 115.527L128.752 112.705L131.946 115.393C133.703 116.872 135.641 117.859 136.251 117.586C136.862 117.314 140.511 115.786 144.361 114.192C151.318 111.309 151.363 111.267 151.668 107.133L151.976 102.975H156.918H161.861V106.996ZM148.452 123.487C138.828 127.164 132.948 135.018 132.123 145.301C131.49 153.181 134.304 160.335 140.091 165.564C145.356 170.321 150.06 172.175 156.861 172.175C174.47 172.175 185.9 156.188 180.7 138.833C179.183 133.77 173.691 127.439 168.533 124.808C163.248 122.111 153.696 121.483 148.452 123.487ZM161.962 131.111C171.945 134.448 176.615 145.657 171.884 154.931C169.12 160.348 164.654 163.245 158.246 163.776C151.147 164.365 144.98 160.919 141.957 154.673C139.394 149.379 139.338 145.709 141.742 140.475C143.993 135.573 146.562 133.201 151.545 131.424C156.297 129.729 157.7 129.687 161.962 131.111ZM58.9015 153.427C56.2445 156.628 60.1465 161.545 63.6115 159.363C67.0735 157.182 65.8405 151.975 61.8615 151.975C60.8965 151.975 59.5645 152.628 58.9015 153.427Z" fill="white"/>
</svg>
